<?xml version="1.0" encoding="UTF-8"?>
<svg version="1.1" xmlns="http://www.w3.org/2000/svg" xmlns:xlink="http://www.w3.org/1999/xlink">
    <symbol id="icon-captions" viewBox="0 0 18 14" xmlns="http://www.w3.org/2000/svg">
        <g fill="#fff">
            <path d="M-.67-4.08h14a2,2,0,0,1,2,2v10a2,2,0,0,1-2,2h-14a2,2,0,0,1-2-2v-10A2,2,0,0,1-.67-4.08Z" transform="translate(2.67 4.08)"/>
        </g>
        <g fill="#000">
            <path d="M2.88,6.67a2.81,2.81,0,0,1-2.1-1A3.91,3.91,0,0,1,.88.87c.5-.6,2-1.7,4.6.2l-.6.8c-1.4-1-2.6-1.1-3.3-.3a3,3,0,0,0-.1,3.5c.7.9,1.9.8,3.4-.1l.5.9a5.28,5.28,0,0,1-2.5.8Zm7.5,0a2.81,2.81,0,0,1-2.1-1,3.91,3.91,0,0,1,.1-4.8c.5-.6,2-1.7,4.6.2l-.5.8c-1.4-1-2.6-1.1-3.3-.3a3,3,0,0,0-.1,3.5c.7.9,1.9.8,3.4-.1l.5.9a6.07,6.07,0,0,1-2.6.8Z" transform="translate(2.67 4.08)"/>
        </g>
    </symbol>
    <symbol id="icon-chapters" viewBox="0 0 16.6 13" xmlns="http://www.w3.org/2000/svg"><path d="M1.5,0A1.54,1.54,0,0,1,3,1.5,1.54,1.54,0,0,1,1.5,3,1.54,1.54,0,0,1,0,1.5,1.47,1.47,0,0,1,1.5,0ZM6.6,0h8.5a1.47,1.47,0,0,1,1.5,1.5A1.54,1.54,0,0,1,15.1,3H6.6A1.47,1.47,0,0,1,5.1,1.5,1.37,1.37,0,0,1,6.6,0ZM1.5,5A1.54,1.54,0,0,1,3,6.5,1.54,1.54,0,0,1,1.5,8,1.54,1.54,0,0,1,0,6.5,1.47,1.47,0,0,1,1.5,5ZM6.6,5h8.5a1.47,1.47,0,0,1,1.5,1.5A1.54,1.54,0,0,1,15.1,8H6.6A1.47,1.47,0,0,1,5.1,6.5,1.37,1.37,0,0,1,6.6,5ZM1.5,10a1.5,1.5,0,0,1,0,3A1.54,1.54,0,0,1,0,11.5,1.47,1.47,0,0,1,1.5,10Zm5.1,0h8.5a1.47,1.47,0,0,1,1.5,1.5A1.54,1.54,0,0,1,15.1,13H6.6a1.47,1.47,0,0,1-1.5-1.5A1.37,1.37,0,0,1,6.6,10Z"/></symbol>
    <symbol id="icon-fullscreen" viewBox="0 0 17.8 17.8" xmlns="http://www.w3.org/2000/svg"><path stroke="none" d="
M 2.75 15.7
L 3.2 12.75 0.95 12.1 1.25 17.4 6.5 17.35 6.1 15.5 2.75 15.7
M 0.75 0.5
L 0.8 6.25 2.9 6.65 2.75 2.3
Q 5.060546875 2.725 7.4 3.1
L 7.65 0.8 0.75 0.5
M 15.35 6.55
L 17.35 6.5 17.45 0.45 10.4 0.85 11.1 2.9 15.45 2.1 15.35 6.55
M 17.35 11.3
L 15.35 12.2 15.55 15.7 11.65 15.4 12.15 17.2 17.05 17.45 17.35 11.3 Z"/></symbol>
    <symbol id="icon-unfullscreen" viewBox="0 0 17.8 17.8" xmlns="http://www.w3.org/2000/svg"><path stroke="none" d="
M 2.75 15.7
L 3.2 12.75 0.95 12.1 1.25 17.4 6.5 17.35 6.1 15.5 2.75 15.7
M 0.75 0.5
L 0.8 6.25 2.9 6.65 2.75 2.3
Q 5.060546875 2.725 7.4 3.1
L 7.65 0.8 0.75 0.5
M 15.35 6.55
L 17.35 6.5 17.45 0.45 10.4 0.85 11.1 2.9 15.45 2.1 15.35 6.55
M 17.35 11.3
L 15.35 12.2 15.55 15.7 11.65 15.4 12.15 17.2 17.05 17.45 17.35 11.3 Z"/></symbol>
    <symbol id="icon-mute" viewBox="0 0 17.55 17.03" xmlns="http://www.w3.org/2000/svg">
		<path stroke="none" d="
		M 10.2 4.25
		L 10.2 0.65
		Q 9.46328125 0.305859375 9.55 0.1 6.6625 2.5376953125 3.75 7.05 2.1 8.222265625 0.45 7.85 -0.0798828125 10.6669921875 1.05 12.3 2.1697265625 11.5658203125 4.25 13 6.6373046875 16.5037109375 9 17.7 8.93125 17.5447265625 9.5 17.4
		L 9.45 15.55 8.7 14.9 8.35 16.2
		Q 8.260546875 16.0193359375 8.15 15.8 8.0978515625 15.5818359375 8 15.35
		L 8.65 13.2 7.8 12.75 7.8 14.7
		Q 7.087890625 12.3978515625 7 10.1 6.97109375 9.68984375 6.95 9.25 7.0015625 9.2005859375 7 9.15 7.3056640625 8.676171875 7.55 8.5 7.7228515625 11.388671875 8.3 11.65 10.83359375 10.3078125 10.8 8.75 10.8373046875 8.153125 10.5 8.15 9.3294921875 8.8953125 8.35 9.4 8.51796875 8.1859375 7.85 7.3 7.3896484375 7.3244140625 7.05 7.65 7.2244140625 5.9634765625 7.75 4.25
		L 8 6.35 9.2 5.6 8.6 1.95
		Q 8.758984375 1.693359375 8.9 1.4
		L 9.45 4.65 10.2 4.25
		M 14.55 0.7
		L 14.15 1.5
		Q 18.146484375 8.2322265625 14.15 16.15
		L 14.55 17.05
		Q 20.583984375 8.30078125 14.55 0.7
		M 12.5 2.7
		L 12.25 3.6
		Q 15.1744140625 7.7263671875 12.15 13.7
		L 12.45 14.4
		Q 17.0224609375 7.7810546875 12.5 2.7
		M 10.75 5.05
		Q 12.7966796875 7.926953125 10.7 12.05
		L 10.9 12.55
		Q 14.076953125 7.9677734375 10.95 4.45
		L 10.75 5.05 Z"/>
    </symbol>
    <symbol id="icon-unmute" viewBox="0 0 18.2 17" xmlns="http://www.w3.org/2000/svg">
	<path stroke="none" d="
		M 10.2 4.25
		L 10.2 0.65
		Q 9.46328125 0.305859375 9.55 0.1 6.6625 2.5376953125 3.75 7.05 2.1 8.222265625 0.45 7.85 -0.0798828125 10.6669921875 1.05 12.3 2.1697265625 11.5658203125 4.25 13 6.6373046875 16.5037109375 9 17.7 8.93125 17.5447265625 9.5 17.4
		L 9.45 15.55 8.7 14.9 8.35 16.2
		Q 8.260546875 16.0193359375 8.15 15.8 8.0978515625 15.5818359375 8 15.35
		L 8.65 13.2 7.8 12.75 7.8 14.7
		Q 7.087890625 12.3978515625 7 10.1 6.97109375 9.68984375 6.95 9.25 7.0015625 9.2005859375 7 9.15 7.3056640625 8.676171875 7.55 8.5 7.7228515625 11.388671875 8.3 11.65 10.83359375 10.3078125 10.8 8.75 10.8373046875 8.153125 10.5 8.15 9.3294921875 8.8953125 8.35 9.4 8.51796875 8.1859375 7.85 7.3 7.3896484375 7.3244140625 7.05 7.65 7.2244140625 5.9634765625 7.75 4.25
		L 8 6.35 9.2 5.6 8.6 1.95
		Q 8.758984375 1.693359375 8.9 1.4
		L 9.45 4.65 10.2 4.25
		M 17.35 5.85
		L 15.9 3.85 13.95 7.7
		Q 13.1 6.4 12.1 5.25
		L 10.7 6.8 13.1 8.65 10.75 11.55 12.2 12.65 14.1 9.8 16.2 12.45 16.2 12.4 17.3 10.8 15.2 8.55 17.35 5.85 Z"/>
    </symbol>
    <symbol id="icon-play" viewBox="0 0 18 18" xmlns="http://www.w3.org/2000/svg"><path stroke="none" d="
M 4.7 17.9
L 17.55 7.6 3.3 -0.05 4.7 17.9 Z"/></symbol>
    <symbol id="icon-pause" viewBox="0 0 14 16" xmlns="http://www.w3.org/2000/svg"><path stroke="none" d="
	M 5.45 17.5
	Q 5.8625 8.85 6.25 0.15
	L 1.05 0.15
	Q 1.6625 9.0125 2.25 17.85
	L 5.45 17.5
	M 7.8 1.1
	L 8.55 16.7 11.5 17.1 13.4 0.4 7.8 1.1 Z"/></symbol>
    <symbol id="icon-replay" viewBox="0 0 17.52 15.97" xmlns="http://www.w3.org/2000/svg"><path stroke="none" d="
	M 15.55 9.5
	Q 15.62578125 9.100390625 15.6 8.65 15.6244140625 5.4724609375 13.35 3.2 11.128515625 0.9763671875 7.9 0.95 4.7224609375 0.9763671875 2.45 3.2 0.2263671875 5.4724609375 0.2 8.65 0.2263671875 11.878515625 2.45 14.1 4.7224609375 16.3744140625 7.9 16.35 9.5125 16.3765625 9.85 16.25
	L 9.05 14.15
	Q 9.19296875 14.87421875 8.05 14.85 5.60078125 14.878515625 3.85 13.1 2.147265625 11.425 2.15 8.95 2.147265625 6.46328125 3.85 4.7 5.60078125 2.997265625 8.05 3 10.5625 2.997265625 12.25 4.7 13.999609375 6.435546875 14 8.85
	L 11.1 7.5 12.15 15.6 17.95 10.55 15.55 9.5 Z"/>
	</symbol>
    <symbol id="icon-overlay-play" viewBox="0 0 80 80" xmlns="http://www.w3.org/2000/svg">
        <path fill="#ffb812" stroke="none" d="
		M 73.4 37.4
		Q 73.41953125 22.4583984375 62.85 11.9 52.34140625 1.38046875 37.4 1.35 22.445703125 1.38046875 11.9 11.9 1.36796875 22.4583984375 1.35 37.4 1.36796875 52.34140625 11.9 62.85 22.445703125 73.41953125 37.4 73.4 52.34140625 73.41953125 62.85 62.85 73.41953125 52.34140625 73.4 37.4
		M 60.95 13.6
		Q 70.8447265625 23.4744140625 70.85 37.45 70.8447265625 51.4755859375 60.95 61.35 51.112890625 71.2072265625 37.1 71.2 23.1369140625 71.2072265625 13.25 61.35 3.4048828125 51.4755859375 3.4 37.45 3.4048828125 23.4744140625 13.25 13.6 23.1369140625 3.742578125 37.1 3.75 51.112890625 3.742578125 60.95 13.6
		M 51.9 51.5
		L 44.35 51.5 43.75 66.3
		Q 48.1833984375 65.3646484375 52.05 63.1
		L 51.9 51.5
		M 54.45 61.45
		Q 56.35859375 60.069921875 58.1 58.3 61.26015625 55.163671875 63.25 51.5
		L 54.25 51.5 54.45 61.45
		M 33.35 51.5
		L 33.35 66.85
		Q 35.1220703125 67.0759765625 36.95 67.05 39.6369140625 67.0646484375 42.1 66.65
		L 41.65 51.5 33.35 51.5
		M 30.35 66.35
		L 30.35 51.5 22.9 51.5 22.9 63.65
		Q 26.4072265625 65.551953125 30.35 66.35
		M 21 62.55
		L 20.45 51.5 10.65 51.5
		Q 12.6896484375 55.163671875 15.85 58.3 18.2986328125 60.7806640625 21 62.55
		M 66.8 37.2
		Q 66.83125 24.8099609375 58.1 16.05 49.36484375 7.3310546875 36.95 7.3 24.5849609375 7.3310546875 15.85 16.05 7.1060546875 24.8099609375 7.1 37.2 7.0958984375 43.9421875 9.7 49.6
		L 64.2 49.6
		Q 66.8291015625 43.9421875 66.8 37.2
		M 46.35 22.15
		Q 49.20546875 22.1474609375 51.15 24.4 53.20078125 26.7560546875 53.2 30.05 53.20078125 33.344140625 51.15 35.6 49.20546875 37.9529296875 46.35 37.95 43.53203125 37.9529296875 41.5 35.6 39.5244140625 33.344140625 39.5 30.05 39.5244140625 26.7560546875 41.5 24.4 43.53203125 22.1474609375 46.35 22.15
		M 33.7 24.85
		Q 36.078125 27.8669921875 36.05 32.05 36.078125 36.2833984375 33.7 39.2 31.319140625 42.2197265625 27.9 42.2 24.530859375 42.2197265625 22.15 39.2 19.7716796875 36.2833984375 19.75 32.05 19.7716796875 27.8669921875 22.15 24.85 24.530859375 21.94296875 27.9 21.95 31.319140625 21.94296875 33.7 24.85
		M 34.1 32.15
		Q 34.0998046875 28.63046875 32.2 26.15 30.405078125 23.67109375 27.8 23.65 25.2328125 23.67109375 23.35 26.15 21.537890625 28.63046875 21.55 32.15 21.537890625 35.7193359375 23.35 38.2 25.2328125 40.6912109375 27.8 40.7 30.405078125 40.6912109375 32.2 38.2 34.0998046875 35.7193359375 34.1 32.15
		M 46.15 35.85
		Q 48.4041015625 35.8740234375 49.95 34.1 51.5353515625 32.3794921875 51.5 29.95 51.5353515625 27.520703125 49.95 25.75 48.4041015625 24.026171875 46.15 24 43.9455078125 24.026171875 42.35 25.75 40.8021484375 27.520703125 40.8 29.95 40.8021484375 32.3794921875 42.35 34.1 43.9455078125 35.8740234375 46.15 35.85 Z"/>
    </symbol>
    <symbol id="icon-loading-spinner" viewBox="0 0 75.8 77.9" xmlns="http://www.w3.org/2000/svg">
        <g fill="#ffb812">
            <circle cx="38.8" cy="8.1" r="8.1"/>
            <g opacity="0.4">
                <circle cx="70.8" cy="40" r="5"/>
            </g>
            <g opacity="0.6">
                <circle cx="38.8" cy="71.9" r="6"/>
            </g>
            <g opacity="0.8">
                <circle cx="7" cy="40" r="7"/>
            </g>
            <g opacity="0.9">
                <circle cx="15.1" cy="17.3" r="7.5"/>
            </g>
            <g opacity="0.3">
                <circle cx="63.2" cy="17.1" r="4.5"/>
            </g>
            <g opacity="0.5">
                <circle cx="62.7" cy="63.8" r="5.5"/>
            </g>
            <g opacity="0.7">
                <circle cx="15.1" cy="63.8" r="6.5"/>
            </g>
        </g>
    </symbol>
</svg>
